<svg xmlns="http://www.w3.org/2000/svg" version="1.1" xmlns:xlink="http://www.w3.org/1999/xlink" width="512" height="512" x="0" y="0" viewBox="0 0 512 512" style="enable-background:new 0 0 512 512" xml:space="preserve" class=""><g><path fill="#9f2309" d="M480.5 78v356c0 25.7-20.8 46.5-46.5 46.5H78c-25.7 0-46.5-20.8-46.5-46.5V78c0-25.7 20.8-46.5 46.5-46.5h356c25.7 0 46.5 20.8 46.5 46.5z" opacity="1" data-original="#356fff" class=""></path><path fill="#e98d43" d="M78.7 44.2h354.6c19.1 0 34.5 15.4 34.5 34.5v354.6c0 19.1-15.4 34.5-34.5 34.5H78.7c-19.1 0-34.5-15.4-34.5-34.5V78.7c0-19 15.5-34.5 34.5-34.5z" opacity="1" data-original="#9fcaff" class=""></path><path fill="#9f2309" d="M211.2 413.3c-7.9 0-13.2-5.3-13.2-13.2v-10.3c0-7.9 5.3-13.2 13.2-13.2h89.6c7.9 0 13.2 5.3 13.2 13.2v10.3c0 7.9-5.3 13.2-13.2 13.2z" opacity="1" data-original="#356fff" class=""></path></g></svg>