<svg xmlns="http://www.w3.org/2000/svg" version="1.1" xmlns:xlink="http://www.w3.org/1999/xlink" width="512" height="512" x="0" y="0" viewBox="0 0 512 512" style="enable-background:new 0 0 512 512" xml:space="preserve" class=""><g><path fill="#ef9148" d="M421.62 11H90.39C46.54 11 11 46.54 11 90.38v331.24C11 465.46 46.54 501 90.38 501h331.24c43.84 0 79.38-35.54 79.38-79.38V90.38C501 46.54 465.46 11 421.62 11zM357.6 347.47c0 17.23-18.65 27.99-33.57 19.38l-158.44-91.47c-14.92-8.61-14.92-30.15 0-38.76l158.44-91.47c14.92-8.61 33.57 2.15 33.57 19.38v182.95z" opacity="1" data-original="#8bd4ed" class=""></path><g fill="#1c71a0"><path d="M421.62 509H90.39C42.2 509 3 469.8 3 421.62V260.1c0-4.42 3.58-8 8-8s8 3.58 8 8v161.52C19 460.98 51.03 493 90.39 493h331.23c39.36 0 71.38-32.02 71.38-71.38V90.38C493 51.02 460.98 19 421.62 19H90.39C51.03 19 19 51.02 19 90.38v81.96c0 4.42-3.58 8-8 8s-8-3.58-8-8V90.38C3 42.2 42.2 3 90.39 3h331.23C469.8 3 509 42.2 509 90.38v331.24c0 48.18-39.2 87.38-87.38 87.38z" fill="#9f2309" opacity="1" data-original="#1c71a0" class=""></path><path d="M11 232.66c-4.42 0-8-3.58-8-8v-16.88c0-4.42 3.58-8 8-8s8 3.58 8 8v16.88c0 4.42-3.58 8-8 8zM333.15 377.9c-5.22 0-10.43-1.37-15.19-4.12l-158.44-91.47c-9.51-5.49-15.19-15.33-15.19-26.31s5.68-20.82 15.19-26.31l158.44-91.47c9.51-5.49 20.87-5.49 30.38 0s15.19 15.33 15.19 26.31v182.95c0 10.98-5.68 20.82-15.19 26.31-4.76 2.75-9.97 4.12-15.19 4.12zm0-227.77c-2.47 0-4.94.65-7.19 1.95l-158.44 91.47c-4.5 2.6-7.19 7.25-7.19 12.45s2.69 9.85 7.19 12.45 158.44 91.47 158.44 91.47c4.5 2.6 9.88 2.6 14.38 0s7.19-7.25 7.19-12.45V164.53c0-5.2-2.69-9.85-7.19-12.45-2.25-1.3-4.72-1.95-7.19-1.95z" fill="#9f2309" opacity="1" data-original="#1c71a0" class=""></path></g></g></svg>